<svg xmlns="http://www.w3.org/2000/svg" version="1.1" xmlns:xlink="http://www.w3.org/1999/xlink" width="512" height="512" x="0" y="0" viewBox="0 0 512 512" style="enable-background:new 0 0 512 512" xml:space="preserve" class=""><g><linearGradient id="a" x2="512" y1="256" y2="256" gradientUnits="userSpaceOnUse"><stop stop-opacity="1" stop-color="#f2d8f0" offset="0"></stop><stop stop-opacity="1" stop-color="#91ddcf" offset="1"></stop></linearGradient><linearGradient xlink:href="#a" id="b" x1="183" x2="509.92" y1="317.97" y2="317.97"></linearGradient><g data-name="Layer 2"><g data-name="Layer 1"><path fill="url(#a)" d="M512 256a255.9 255.9 0 0 1-2.08 32.71c0 .22-.05.44-.08.66q-1.6 12.39-4.39 24.39a256.46 256.46 0 0 1-135.24 171.41 252.93 252.93 0 0 1-58.65 20.77l-.76.17A256.3 256.3 0 0 1 256 512C114.62 512 0 397.38 0 256S114.62 0 256 0s256 114.62 256 256z" opacity="1" data-original="url(#a)" class=""></path><path fill="url(#a)" d="M509.92 288.71c0 .22-.05.44-.08.66q-1.6 12.39-4.39 24.39a256.46 256.46 0 0 1-135.24 171.41 252.93 252.93 0 0 1-58.65 20.77L217 382l-34-110 10-142c179 152 120 138 191 0z" opacity="1" data-original="url(#a)" class=""></path><path fill="#ffffff" d="M193.36 129.64 256 322.24l62.64-192.6h65.52l-89.64 252.72h-77l-89.68-252.72z" opacity="1" data-original="#ffffff" class=""></path></g></g></g></svg>